/* XPM */
static char *north_128[] = {
/* columns rows colors chars-per-pixel */
"128 128 79 1 ",
"  c #1B2C1D",
". c #1C301F",
"X c #212E1D",
"o c #25321E",
"O c #1D2E22",
"+ c #1E3124",
"@ c #212E22",
"# c #273729",
"$ c #323E2B",
"% c #2C3D31",
"& c #313E31",
"* c #2E412E",
"= c #36422D",
"- c #2F4032",
"; c #394735",
": c #434A2E",
"> c #424D38",
", c #48533C",
"< c #545A3D",
"1 c #5C613E",
"2 c #63643E",
"3 c #3F4E40",
"4 c #424C40",
"5 c #4B5742",
"6 c #535C45",
"7 c #596349",
"8 c #5D6651",
"9 c #64694A",
"0 c #706F4A",
"q c #6D714D",
"w c #74754E",
"e c #656C52",
"r c #726F55",
"t c #6B7355",
"y c #7B7D57",
"u c #76795A",
"i c #797E5B",
"p c #7F7F5A",
"a c #7C7D5A",
"s c #777958",
"d c #6F7A60",
"f c #7B7E61",
"g c #827E5A",
"h c #827E59",
"j c #817F60",
"k c #7D815C",
"l c #7D8461",
"z c #7E8262",
"x c #80825E",
"c c #83825F",
"v c #84845D",
"b c #918B5E",
"n c #8B8862",
"m c #8B8B67",
"M c #8C8C66",
"N c #888968",
"B c #888965",
"V c #948E68",
"C c #928E66",
"Z c #8D916B",
"A c #929066",
"S c #929069",
"D c #93956A",
"F c #949469",
"G c #99976D",
"H c #9C986E",
"J c #95946B",
"K c #9F9B74",
"L c #999972",
"P c #A29A6C",
"I c #A39E70",
"U c #A4A073",
"Y c #A9A274",
"T c #B3AC79",
"R c #B3B27B",
"E c #C0B47F",
"W c #B2AC80",
"Q c #BDB583",
"! c #C2B887",
/* pixels */
"7%*6&%8$0S$8=#<;#<e=#6>#5;<K>,,#,5#=e,#>,#>6=G8=6#=6%=96%=6%%7$ix%6=%8=#<e&%8=#6=9U=5;#6,#>q;#<5#,,:H<;6#>6#=e5#;7#=6$Cu$8%$7%$6",
",5#;6#$y8>M>#,5#>5=8%=7=#9z$M7#=8%=7%7;#6;#<S;0u%%8;#6=5,#,<#=A6<M=#5,#,5=6#=8%%wi;S,#>6#=7%7=#7=#<M$xe#=6%%8=,>#6,#>h;ei%%6;#6,",
"#5>#6,=B%+s8$e%=8-#>5#>6#k>+<to8=#7;#=8%%8#qeO=M$6,#55#%6=#7=>i##i>=7#=8%#55#,5$Z=+ee#e&%7=#;6#=e#i6O,M#6;#65#$8=#7$6t+#z=,5#>6#",
"%%8=%<M;%=%xe=#8;#%#6>#>k6#;#ei;#,5#%#>6#=yd#;#5B5#=7%%%=7%%7z%=$$M8%%8=%%%7;#,M5#;#s0=#<;#%#,,#=ye#;#7M,#>6#%%;7#=qz#=%=x6%=7%%",
"6#;8 weO<7#>M#,5#>e%%8%,zO>q=#M==8#=e;#6;#B=$q5 w8#8=#95#>5Xy5#88#6B@6,#,7#=8#9tO<q%=M%;6#=e&%7=>M#;q>+B,#8%%e>#55#B>#e6O9q@6;#5",
"7>#,0t+,5=6.7h,%=7,6#=7z$=8$7#;i6=#6,7%%<k5#8=6;#ve;#556;#,wtO<;>6 qw,#;6>,#>0z#>6=8#5B<%$7>6#=<x;%8&7=$x7=#6,6=%<x8O8;,,+hq5#>5",
"%8=$M%=7%%65OM6O8;#6, v6#7=#>7OekO5,#>7 0f 65#=8#>G#;8#=8%:Z#;7%%7>#B>%7=%6;#S;%e=#,6 weO6>#,5 ie 8;#=7#6BO,6#;7O1ZO<6#%8=%A$$8%",
"#;<s5#8=%%%7&=x65#%$69tO65#%#5,#i75%%%5<u#;7#%#>8O9s<=%#><i;#9-%%=8#;x,>##=,w8.8>#%#6;#u15#%%69fO,6#%#,5 e05%%#,<M==7%%%=7#,i<=#",
"> 0t ,,#,8#=8#<S#=5#>M#;7#=8%%8=#S=#6%#S;%8-%e;#6,@h6O,; xeO8;#<5#;6#9uO>< 9BO>6#>8%%8%;S%%,#=S%=8%$e=#7;#S,#<;XS5#6=#6>#,6OyqO>",
"7,B#;5#=76,#,5Oq8,8>y;%8%%8,5#=8#<k>7>w8O7;#,56&%7=$i>75<f+,5#>56>#6,Os<68>B==7%$6,5#>8O90>7>t5#7;#6,6%&8%;k:8>et <5#,55=#7;#i,6",
"=G;#7*%8=#6=#5;#b5 B8X6>#5,#5,#,6@qw 0NO,6#>6#;6#=7#,S#>S%=8%$8%%8*%6=$H>#A5#5=#6;#6;#65+ie ytO65#,5#56#>6+9BO<Z#;7#=8#=7%*8%;G=",
"q8 6>#65##=6%%7%>w,t+,5#>7##%7=#6;#i,B==8%$6&##<,#,5Xq6w5#8=#6;##;7#;7#,0<eO<5#,5#%%7%%8=$i,B#;6#=8%%%8;#6,#i<q;%7-#7=%#,6#,8O7w",
"i+,5#>7#;,#,6#;6+9Y#=8%$8%$5%=7%=8%=I,#8=#<;#,=%8=#6;#HuO65#,5#>>#,,+,6 wH+;6#=7%=,#;6#=8#,Q=%8-#8=#,%%8$%6=#Y7O8;#,;#>=#7>#6,+h",
"B>8%=6%%78=#6;#5>wS>5;#7>#5e,#,5#><<M6>,#,5#;85%=7%=6>xw>7#=8#$98=%7=#6=yM>7=#8=#6e;#,,#,,9K<,;#6,#,85#;6#=6:Me>5#;6#=77%$7&%6:v",
"<M%#6;#6>$8%%6=#ye#M,+,5#>6#7=#6;#7Z#ye#;8%=7#5,#,5#=M-7B#$8=#6==6#=7%#b7=H;#<,#,5#6=#8;#0B#M6@>7#=8#<>#5,+,B#wk#&7%%7&>5#;7#$M5",
"#07>6#>6##>6#>6:z%#<i$8%=6%%=8%%7$x;#=k$6;#7;%%7;#6=e8+#w>,,#,5%#5,#,,,i##8e=6#;8%%;8#=8$i=#;k$8%%8=%&7&%8$y6##B>5;#5>%%5;#5=6e#",
"=#Me#=7%%=#6>#>B;%,+wx%#8;%=#>5#=M9#,#,M=#,5#=%=7%#0f#>=$S6#=6%$&%7;#<M&=;#iu%%6=%=#55#:C5#,#7z=#6,#=%;6%%it+,%=M,#>6#=%%8=#9k#=",
"8%>M#6;#6e%%e%e8X6e=#M=>5#;e=#6=<z+>e,@w7$7#$e5#,5$z&$87#6r#6=#77#=7#y6#8e&=M$5;#,q&%7&<q@,7;#s,;7#=e;#<,=B#;e6Oeq#8%%85#;6#w;%9",
">6O7i;#,5>7#=yz+,5%8%;M6%=6=6%%9M%=8#6;#B0-%8=6;#,v5#7&>5+ew=#55,5#=08O<,=8#6A,#;7=8%$9z#;5#7=$M8%%7=7=%6M;#8%<5+s0=#6;,>#;i6#6>",
"#5,Oi,#8%#6>$M%=7%%;7Oew@7;#>6Xk5#7=%%8%>B#,5#$8#7t 5,#%6;#B;=6%%7==k#>8##,5Os8#8=#55oM;%7-%=7+<x@6>#=7@weO6;%%8=$M#>6#%8%,u+,5#",
"%%8=$x7=%#$,k5#8;#=#5,+iq;%%%>wqO<,#$#;6@8i,%%%;eB#>6#$%$8%>B6=%%=<M=%8%%$%6;#i0;#%%,s6O8;%$#,5Oqw,%%%>0u+,5#$#=8#<k6%%%=7k%=8%%",
"5#=e#6BO,7O9qO6,#>e%#7=$S$$e#>B#;7#=q;#65Ov6@8;#M;#9=%85#>6 eu ,5 ye 6;#<8%*8%>Z#;8@<N+,6#;q=#6;#M>#e=$M$=8%$e,#,6 yeO6, v5#7;#<",
"5,#,6+e9557u#>7#=6>6#;8#,i,6<i;#8=#8;6$%7*%s<6,w8O8;#6>5;#65+w9559uO,5#>6>5#>6O90,5,B%=7%$7=7%&8%;i56,s5#8;#6>7=#6>#B1550tO65#,6",
"%7=#8;#B>oS;%8-#6=#5,#,5Owt x8O7;#65#;6#=8#,M 9BO,6#>6#&8%%8=$S==K*=8#=8%#6;#55 i8 M5#8;#7;#,6#>6OeB 0qO5,#,5#=7%$8%>S#>M#>8#;8%",
"%=8%=8%>yw8O63#<,#%%7=#6;#i7u#,6#>7%%#5,#,6Oe0u==8#$8%%#;6#=8#<sw5#9=#6;#%*8$%8==k9eO65#,5#%#6;#65+i0u#;7#=8%%#,6#;6O8ww;#9=#6=#",
">#55#;6 0G ,5#>6#;7#=8%&9%:Q%=7%$8%%6=#6=#8;oT6#7;#7;#<,#6,#,6 AM 65#,5#>5#;7#=8O9RO>7#=8%=7%$9%%8=$Q>#6=%8=#7=#7>#55 Ys 8;#5;#,",
"6=#6;#5<wq66%$8&%77,#,5#,60Bw<;#6;#565#=7%=69ii,5#,5#>78=#8=#6<kq<5#=6%=66;#5,#,,wf96=%8;#586#;7#;<9u9,;#65#,88%$8%%6<kk<6#>7#=8",
"=6%%8&oS5#S;#7;#65#8;#6> yu Me ,5#>6#,5#,6+<ZOeMO=7%=8%=8#=8%$S==Z%%7=#8;%7&%8; B8XG6O65#<5#7>#5,O7z qtO>7#;8#,6#;6#:S#,S#$8%%8=",
"#>6#>59t##,q>5#>6#%=8%=6>z%#$B>7%=8%%%8=#7>i;##i<5;#6;%#55+,>q8##8q>,#,5##=6#=5<u##>i>6#=8%%%8=%6:z=#%x,6-%8=%#6>#6>w5##w75;#6,#",
"=#7,#9Z#;,#qs#=9%$>#,6+=S;%6#<S%%8;#>%=7%#x7#6=$S,+,5#;=#7;OqB+,,.xq+;8%=;#,,+,K%=6+7M#%7=%;#;7%%S5#7%;S=#5;#>&%8=#hu <;#S8O>6#=",
"8%%8$s;#78;#B;5;#,q=#7=q8+685Oe<>5#>e,#>,,u+,76#5w=8#$e7#=8$z-$67*=B$6=#7e-#8=q5#68,@i,<,#,q;#,;<q+,85O7e=6#=8,#>6:B#;78%>x$8%%6",
">6#$M8+6;%8%>A>#>5$7%#sz+,5#8;#x7#=8#6;#<B%=8#,5OwB%%7=,5#>G,#8==8#,M=#55=6%%yeO<5#8=$S6#=7%7=#9B#;8#65+he#$8$,>#,S;%8%;7+eS&#6>",
"%5=>t#,6##>7O7e#8%%;5$x==8%%%7%;i#7;%=8#q5#8=#%6;#B=,5%%6$<t+<,##,,Ow7$8%#,,=f#;6%%=7#,u#8=%=6#i;#6=%%8=$B#6>#%8#q8O6;%#5,+i>;6%",
"%#9B%=8#==#6,+qw-%$%>i5#7=%;#>8O8B;%$%=yeO65#;&%7%;A6%$%%ez#;7#==#7>#xe%%%#<S;%9%$;#,5+0i=%$%>M8@7;#;%=7#,B5%%%=0z+,5#==%8=#B9#%",
"7@k6#8;#6e%%8==S%>e#7qO<,#>q;#65oi,%q=:M#;8#=q,#>7O9e e5#x;%8=#77%=7#>M#<eXweO6;#<t=#6;#B==q%,z+,5#;q,#,6 y9#q>$S==8%$e6#=6#6u@6",
",wtO6,#,5=7#=8#<x5>0k#;6#=7$8%%8=$M7;<M;%9-#8=5>#65+se;,s7@6;#6>>6+>8O8x,>0uO,5#>6=8%*8%;B6;7z%=8#$8%6=#6;#ke>,B5#e;#6=,5#,6Oe0,",
">M#;7#=8%#55#55 se Z;%8&%8=#;6#=8#<M seO6>#65#=8%%8==S#,zO,5#>6%%6;#5,OM5#C==8#$8-#,5+>7O8u k5#7;#7;#=7%=6#>S 9tO65#,5#%7=#6;#B;",
"x;#8&#7=%%%8=#7;#yx6 7;#65#%#5,#,6Oeye#,5#>7#%#;6#=8#<xu==8%&8%%%$8%%7=%yh,#7;#7;%%#7>#5,#theO6,#,5#%#,5#;6.7hs#>7#=7%%%=7%$7%;i",
"k@8;#6,#58#=8%$8#2!X,6#>7#=e%#8=#7;$W>*8%%8%%e,#6<#,6 Iq 8=#7;+68+;8#=e yU 65#,5#>e%&7=%8$:Q%=6#=8%$e=#6>#6,XE8#e&%8=#8,#,6#;8 h",
"i95#>7#=65,#,5#;9x0i5%$8%%7,7#=8%=<s8i6;#6;#6,8=%8=#<qe0e>#,5#>66>#5,#,9qew5#=7%=8,6#;6#=6i7y6=%8=#6,7%$8-%,wei7;#65#,55=#6;#,0i",
"$A=%8%%8=%7=#6>XM6 i5#6;#65#5,#,6 0t et ,5#>6#;8#=8#:M#>S#=6%=8%%8=%8=#S;#C>#9=#7;#5;#,, ye ie 6,#,5#>,#;8.6BO6MO>7#=8%=8%%6%$C=",
"#6k<>#65##=8%-,0q#%$i<5#>6#%%7;#6<B%%#s76%$8%%#<5#,<s;##8w5=#6;##;7#=,w8##;x,,#,5#%%7=%51u#%#k<5#=8%%#6>#5,B=%#qe,=%7-%#,5#;,y5#",
",@qeO>7#;,#,6#,M#;7#,M#=6%$<%=8%$G;#9=$H;#6;#,=#7;@i7O7,Oi8O,5#>,#5, 9BO,7.9B =8#=,#;7#=S%$7%;G%%8=%6%%7=#B5#6;#M,+6,#,;#<>O0uO,",
"8;#i,8%%78=#6>t;%655@q75;#,75#,,e8O668#,w>5#>85#=<,tO,68=$i>8%=87=#6:B*=76,+u<5=#68;#5>i5#667+90,,#,e5#;,1q@,56%;s>5#=88%%6,B#;8",
"%8%=M=#7>%7%#x7+8;#6;#M7O,6#8;+0zO>5#,6Owi+=8#,,#>S%=9#=8#,H%#7==6#$B,#8;%7=%S>#65#8=#yuO65#6,OxeO;6#65+6M#;6#;6+9B#$8%>7#=K;#8-",
"#;6+79=5%%>,>t+,5#%=7%;f=8%%=6=B&=8%%#6=#x>6=%%7=s5#7;%#,5 w7>5%#5><e+,>##=8#5w=7%%;5;i#>7#%%6=$B=6=%%7$B;%8&%#5,#i,,>##7=qeO6;%",
"=#65+yq#==#<B%=7%=>#;6+7B&%=%=A5#6=%,%%7%;S>#=%%yq+<,#,=#6;#B7#==#9Z#;6#=,#,5Oqk#%=#>M;#8-%,%=8#,M=%=%$B7X6;#,&%7=$v5#==#0z+,5#=",
"7*%8=$k$6e#i5#7=#68;#5,#s>=t$<tO5,#>e,#;6O9e#e,:B#=6#=e8%&8%;z#88#B;#8-%6e=#8;#B;>e#08.7;#,7;#,5Oq7$e=,fO,5#;e6#=6#6k#e6$k&$6%$8",
";6#=8#,B;=kqO65#,5#8&%8=$S8%9i#;7#=8#6>#5,#yu%,x;#7%%8$>6#>6+7k==b8O6;#5;&7#-8%=M5%qf#,6#>6#6=#5=#Be%1M%$7%$9%,,#,5Oqx=>M,#6=#6;",
"#6,#,5Ow7=B#;7#=8%%;6#=8#6woi;#8&%7=%&7$%7=$S#e7X83#6,#%6>#,,+i>,B@,5#>6%#,5#;7 eq#B$=7%$7&%=7%&8%;Moi6#7;#7;#%6=#7;#M=<t@,5#,5#",
"%#6=#6;#kM;%8-%7-%=#5,#>,+7b5#6;#5,#=#;7#=8#,Pu+,6#>6#=%&8*%7=$xM%=8%&8$%=#8;#65+qb5#7=#6;%=#>6#;6@7v8+65#,5#&%=6%&8%;bu#;5#=6%%",
"7#=8%%8#wHX6;#65#,0&%6=#6=:T=;5#>6#=e;#5,#,5oT7%8#$8%%e5#;6#=7XbMX8=#5;#6e%%7*%e%<Y#<5#,5#;q=#6;#6>$U>=8#=8%$e,#,<#>7XIw#8&%8=#6",
"5,#,<#=0q6x>#>6#=7=6#=6%%9z>M6%$8-%8=7=%7=%,B,se=#6;#6;6,#5,#=yeei;#,5#>5;6#;7#=qf,v,#=7%$7=8%%8$%6M>x7%#7=#6;6=#6;#>i5wu=#65#,5",
"%7;#7;#B=#x<#8%%7=#55#,6Xx5Oew 7;#65#;6#=7+7tO>Z#,6#>5#$8=%7=;B%%M;=8#$7%#6>#,,oM>Oi9+7=#7;#,6#;6 sqO6i@6,#,5#=8%%8#<k+=S%;7#;6%",
"%=7%%<y5#%&i6;#6,#%%8;#,0t#=#w0,#>5#%%,,#>9u%$#9i5%$8%%#;7#=6i;%%;x8;#6;#%%7$%<y8#=#Be>#,5#%%6;#,9u#=#e9<#=6%%#,6#;<B=%#5h<-%7=#",
",#,7O9qO5e#,B >6#=8#=7#>M#;q%$S=$8%$8*#6;oC;#e,Oi6#7=#6>#55 i8O87Oez ,5#>6#;8+<NO,e%>M#=7%=8%%7%=K*$q;#B>#8=#7;#6> x5#95Oue 6>#,",
"8;#67f#;6,6Oq05&$76,#,<i;#8>8#<i,;#666%=<w8O6>7==B<5#,76=%61u#,55,Ok95%=66,#5<z%=7>6O8s,=#666#>6u5#8;6%>k<,#567%$6ee 6,5;#x<5#;8",
"=8%$S;%6=#7;#S,+6,#6; xeO6;#55 iw ,6#,,O<zO,5#=8#6A+=8%=8#=Z%=8%%8=$S=#6=%8=oA5#8;#,5Xv9O55#65 wuO5,#;6O8iO;7#>6+<S#>7#=8%;H%%7&",
"#>,08#6;#%$8%;B>5#%=6<d+,6#%#6;#s,6%%%5>k%=8%%#,5Oq95;%#5,w5#8=##=7#,q>5##;<9tO,,#%%8=$M>7%%%7>z#>7#%#,,@w<5=%%5;i;%8-%#>7Oew,5#",
"=+ez+,5#>5#>7OeM#=>#,Z%=8#$6%$8%=S=%>%#S5#8;#6=#7;#S8#>= xuO65#,,#,5OqiO=>+1M#;7#=5#=8#,S%%>%=S;%8-%6*%8=$S>#>=#M8 8>#<>#65 Me+=",
"7=z$=9%&77;#5,Ok,>e=w5#8=#<85#>7O9q=t>9tO65#,77%=8#>z=e5:B#;6#=86=#6;#x>6e=k;#8-%67,#,5 w7;q=q8+6;#,76#=7#,q=e5,i+,6#>77&%7=$B=8",
"=S5#8;#6;%7$%7=$S5+xtO65#,5#7>#6,+xwO9M#=6#=7#,5#;6.7M#>S;%8&#8==8%$8%;C;#x7o6;#<,#8=#7>#Me wz+,5#>6#6,#,5+qi#<Z$=7%%8%;7#=8#<C=",
"9tO65+,5#%;6#=6#<w:N#>7#=8%%&8%%7=$B$s;#8%%7=%#6;#65+j,08 7;#6,#%,5#;6X9e>f+,5#;5%%=8%$8%>B$B-$6%$8%%#8=#6;#M=q5#7=#6;%#5,#,5Oe7",
"i#;8#=8%=;#5,#,5O0U=%8-#7=%;#;6#=8#>I6#6;#<,#;%%7$%8=%Gi+,5#>6#==#6>#5,#yM%=7%=7%%;#,5#>7+7T;#8;#6;%;%=8%&8%=H8+<5#>5#==%7=#8;#h",
"i$6=#8=#6e%%8=#7=9I=5;#6,#>q;#6,#,,=I<;6#;6#=e,#;7#=6#Aw%8%$7%%67%*6$%8$0S$8=#6;#<e=#7>#5;,I:,5#,5#=e,#>,#>6=H7=7#=6%$96%=7%%7$y",
"9M=#5,#,5=6#=8%%wi=S>#>7#=6#7=#7;+<M%Be#=8%#8&,>#65#:x;ei%%6;#6;;5#;6#$y7;M>#,5#>5%8%%8=#9z%M7#;8#=7%7;#5;#<G=0u%%8=#6=5,#,<#=A8",
"#u>=7#=8%#55#,5$Z=+9e#e&%7=#;6#=eoi6O,B#6;#64#$8=%7$6t#%z=,5#>6%%5>#6,=B%#s8$e%=8-#>5#>6#k>+<to8=#7;%=8%%8#qeO=M%6,#55#%6=#7=>f#",
"%$M9%%8=%%%8;#,M5#=#s0=#<>#%#,,#=ye#;#7M>#>5#%%;7#=qz#=%=x5%=7%%%%8=%<M;%=%ke=#7;#%#6>#>k6#=#ei;#,5#%#>6#=sd#;#5B5#=7%%%=8%&7x%%",
"8#6BX6,#,7#=8#9tO<q%=M%;6#=e&%7=>M#;q>+B,#8%%e>#<5#M>#e6O9q@6;#66+;8XweO<7#>M#,5#>e%%8%,zO>q=#M==8#=e;#6;#M=$q5 w8#8=#95#>5Xy5#7",
",5 qw,#;6>,#>9z#>6=8#5B<%$8>6#=<x;%8&7=$v7=#6,6=%<x8O8;,5+yq5#>,<>#,0t+,5=6.7h,%=7,6#=7z&=8$7#;i6=#6,7%%<x5#8=6;#ve;#556;#,wqO5,",
"#7>#B>%7=%6;#A;%e=#55 weO6>#,5OieO8;#=7#6BO,6#;7O<ZO<6#%8=%S$&8%%8=$M%=7%%65OM6+8;#6,Ov6#7=#>7O0kO5,#>7 0f 65#=8#>G#;8#=8#:Z#;7%",
"%=8#;k,>##=,w8.8>#%%6;#w<5#%%69f+,5#%#,5 e05%%#,<N==7%%%=7#,i<=##;<s5#8=%%%7&=x65#%$69tO65#%#5,#i76%%%,<u#>7#%#>8O9s5=%#><i;#8-%",
"5#;6#9iO>< 9BO>6#>8%$8%;S%%,#=S%=8%$e=#8;#S,#<;oS5#6=#6>#,6OyqO,, 0t ,,#,8#=8#<S#=5#>M#;7#=8%%8=#S=#6%#S;%8-%e;#6,@i6O,; xeO83#,",
"7>#6,Os<68>B==7%$6,5#>8O9w>7>t5#7;#6,6%&8%;k:8>et <5#,55=#6;#i,67,B#;5#=76,#,5Oq8,8>y;%8%%7,5#=8#<k>e>w8O7;#556&%7=$i>75<f+,5#>6",
"$8*#6=%H>#A5#5=#6;#6;#65+ie yuO65#,5#56#>6O9BO<Z#;7#=8#=8%*8%;H=$G;%7*%8=#6=#5;#M5 B8X6>#5,#5,#,5Oqw eN+,6#>6#;6#=7#,S#>S%=8%$8%",
"#;7#;7#,0<eO<5#,5#%$7%%8=$i,B#;6#=8%%#8;#5,#i<q;%7-%7=%#,6#,8+ee98.7>#65##=7%%7%>w<t+,5#>7##%7=#6;#i,B==8%$6&%#<,#,5 q6w5#8=#6;#",
"=#,,#,6OwH+;6#=7%=,#;6#=8#,Q=%8-#8=#,%%8$%7=#Y7O8;#,>#>=#7>#6, bMO,5#>7#;,#,6#;6.9Y#=8%$8%$5%=7%*8%=U,#8;#<;#,&%8=#6;#HuO65#,5#;",
"8=%7;#6=yM>7=#8=#6e;#,,#,,9K6,;#6,#,85#;6#=6:Me>5#>6#=77%$7&%6:bB>8%=6%%78=#6;#5>0S>5;#7>#5e,#,5#><<M6>,#,5#=85#=7%=6>hw>6#=8#=9",
";6#=8%#b7=H;#<,#,5#6=#8;+0B+M6#>7#=8#<>#5,+,B#wk+&7%%7&>5#;7#&C>,M%#6;#6>&8%%6=#ye#M,+,5#>6#7=#6;#7S#ye+;8%=7#5,#,5#=M-7x%$8;#6;",
"#5,#,,,u##8e=6#;8%%;8#=8$i=#;k$8%%8=%&7=%8$y6##x=5;#5>%%5;#5=6e##07>6#>6%#>6#>5:z%+<i$8%=6%%=7%%7$x;#=k$6=#7;%%7;#6=e8##w>,,#,5#",
"%%7;#<M&=;#iu%%6=%=#55#:C5#,#7z=#6,#=%;6%%it+,%=M,#>6#=%%8=#9k#==#Me#=7%%=#6>#>B;$,+wx%%8;%=#>5#=M9#,#,M=#,5#=%=7%#0f#>=$S6#=6%$",
"7%=7#y6#7e&=M$5;#,q&%7&<q@,7;#s,;7#=e;#<,=B#;e6Oeq#8%%85#;6#w;%88#>M#6;#6e%%e%e7X6e=#B=>5#;e=#5=<z+>e,@q7$7%$e5#,5$z$$87#5r#6=%7",
"55#;w8O<,=8#6A,#;7=8#$9z#;5#7=$M9%%8=7=%6M;#8%65+y0=#6;,>#;k6o6;;7O8i;#,5>7#=yz+,5%8%;M6%=6=7%%9M%=8#6;#B0-%8=6;#,v5#7&>5+ew=#55",
"%7==k#>8%#,5Os8#8=#55oM;#7-%=7+<x@6>#=7Xw9O6;#%8=$M#>6#%8%,i+,5%%5,Oi,#8%#6>$M%=7%%;7Oeq@7;#>6Xk5#7=%%8%>B#,5#$8#7t 5,#%6;#B==6%",
"%=<M;%8%%$#6;#i0;#%%,s7@8;%=#,5Oqw,%%%>0u#,5#$#=8#,k6%%%=7z%=8%%%%8=$x7=%#$,k5#8;#=#5,+iq;%%%>wqO6,#$#;6@8i,%%%;0B#>6#$%$8%>B6=%",
", ye 6;#<8%%8%>Z#;8@<N+,5#;q=#6;#M>#e=$M$=8%%e,#56 ieO6,Xb5#7;#76#;e#6BO,7O9qO6,#,e%#7=$S$$e#>B#;7#=q;#65Ov5#8;#M;#9-%85#>6Xeu ,",
"52uO,5#>6>5#;6O90,5,B%=7%$7=7%&8%;i56,s5#8;#6>7=#6>#B1550tO6,#,5,,#,6+e9551u#>7#=6>6#=8#,i,6<i;#8=#8;6&%7*%s<6,w8O8;#6>5;#65+w96",
"=K*=8#=8%#6;#<5 i8 M5#8;#7>#,6#>6OeB 0tO5,#,5#=7%$8%>S#>M#>8#=8%%8=#8;#B>oS;%8-#6=#5,#,5Owt x8+7;#65#;6#=8#,M 9BO,6#>6#$8$%8=$S=",
"i5#9=#6;#%*8$%8==k9eO65#,5#%%6;#65+i0u#;6#=8%%#,6#;6O80w;#8=#6=%%=8%%8%>yw8O63#<,#%%7=#6;#i7u#,6#>7#%#5,#,6Oe0u==8#$8%%#;6#=8#<k",
"fO65#,5#>5#;7#=8O9RO>7#=8%=7%$9%%7=$R>#6&%8=#6=#7>#55 Ys 8;#5;#,,#55#;6O0G ,5#>6#;7#=8%$9%:!%$7%$8%%6=#6=#8;oT6o7;#7;#<,#6,#56 h",
"w<5#=6%=66;#55#,,wf96=%8;#586#;7#;<0u9,;#65#,77%$8%%6<kx<6#>7#;86=#6;#5<wq66%$8&%77,#,5#,60xw<;#6;#565#=7%=69ii,5#,5#>78=#8=#6<x",
">M%%7=#8;%7&%8; B8XG6O65#<5#7>#5,O7z qtO>7#=8#,6#;6#:S#,S#$8%%8=$7%%8&oS5#S;#7;#6,#8;#6> yu Me ,5#>6#,5#,6O<ZOeBO=7%=8%=8#=8%$S;",
"#8q>,#,5##=6#=5<u##>i>7#=8%%%8=%6:z$#%x,7-%8=%#6>#6>w5##w7,;#6,%#>6#>59t##,q>5#>6#%=8%=6>z%#$B>7%=8%%%8=#7>i>##i<5;#6;%#55+,>q8+",
";#xq+;7#=;#,,+,K%=6+7M#%7=%;#;8%%S5#7%>S=#5;#>&%8=#hu <;#S8O>7#==#7,@7Z#;,#qs#=8%$>#,6#=S;%6#<S%%8;#>%=7%#x7#6=$S,+,5#;=#7;OqN+>",
"7*=B$7=#7e=#8=q5#685@i,<,#,e;#5;<q+,95O7e=6#=8,#>6>B#;78%>v$8%#68%%8$s;%78;#B;5;#,q=#8=q8+685Oe6>5#>e,#>,,u#,76#,w=8#$e7#=8$z-$6",
"=8#,M=#55=6%%ye+<5#8*$S6#=7%8=#9B#;8#65+he#%8%,>#,S;%8%;7OeS&#6;;6#$b8+6;%8%>A>#>5$7%#sz+,5#7;#x7#=8#6;#<B%=8#,5OwB%%7=,5#>G5#7=",
"#,,@w7$8%#,,=f#;6%%=7#,u#8=%=6#i;#6=%%8=$B#6>#%8#q7O6;%#5,+i>;6%%5=>u#,6##>7+7e#8%%;5$x==8%#%7%;i#7;#=8#w5#8=#%6;#B=,5#%6$<tO<,#",
"=#7>#xe%%%#<S;%9%$;#,5+0u=%$%>M8@7;#;%=7#,B5%%%=0z+>5#==%7=%B9#%%#9B%=8%*=#6,#0w-%$%>i5#7=%;#>8O8B;%$%=yeO65#;$%7%;A5%%%%ez#;7#=",
"7%=7#>M#<eXweO6;#<t=#6;#B==q%,z+,6#;w,#,6 s9#q>$S==8%$e6#=8#6uO78 k6#8;#6e%%8=$S%>e#7qO<,#>q;#65oi,%q=:M#;8#=q,#>7O9e e<#x;%8%#8",
",6+>8O7x,>0u#,5#>6$8%*8%;B5;7k%=8#$8%6=#6;#ke>,B5#e;#6;,5#,6 ew>>ytO6,#,5=6#=8#<x5>0k#;6#=7$8%%8=$M7;<M;%9-%8=<>#65+se;,s7#6;#6,",
"%6;#5,OB5#C==8%$8-#,6#>7O8u k,#7;#6;#=7%=6#>S 9tO65#,5#%6=#6;#M=>S#;7#=8%#5,+,5 se Z;%8&%8=#;6#=8o<M seO5>#65#=8%%8==S#<BO>5#>6%",
"%$8%%7=%yh5#8;#7;%%#7>#5,#theO6,#,5#%#,5#;6.7hs#>7#=7%%%=7%&8#;si;#8&#7=%%%8=#7;#yx7 7>#65#%#5,#,6Oeye#,5#>7#%#;6#=8#,xu==8#&8%%",
"6#;7#=e yU 65+,5#>e%&7=%8$:Q$;8#=8%$e=#6>#6,XE8#e&%8=#8,#,6#>7 AS 8;#6,#,8#=8%$8#2!X,6#>7#=e%#8=#7;$T>*8%%8%%e>#6,#,6 Iq 8=#7;#<",
"7>#5,#>9qew5#=7%=8,6#;6#=6i7y6=%8=#6,7%&8=%,wei7;#65#,55=#6;#,0ww95#>7#=65,#55#;9x0u5%$8%%7,7#=8%=<s8i6=#6;#658=%8=#<qe0e>#,5#>7",
"%8=%8=#S;#S>#9=#7;#5;#,, ye ie 6,#,5#>,#;8.6BO6MO>6#=8%=8%%6%$S&$S=$8%%8=%7=#6>XM6Oi5#6;#6,#5,#,6 0t 9w 56#>6#;8#=8#:M#>C#=6%=8%",
"#;7#=<w8##;x,,#,5#%$7$%51u#%#k65#=8%%#6>#5,B=%#qe,=%6-%#,5#;,y5##6k,>#65##=8%-,0q#%=i<5#>6#%%7;#6<B%%#s76%$8%%#<5#,<s;##9w6=#6;#",
";#5, 9BO,7.9B.=8#=5#;7#=S%=e%;G%%8=%5%%7=#B5#6;#M,+6,#,;#<>O0uO<6OqeO>7#;,#,6#,M#;7#,M#=6%$<#=8%$G;#9=$H;#6;#,=#7;@i7O7,Oi8O,5#>",
"8=#6:B-=66,+u<5=#68;#5>i5#657+90,,#,e5#;,1eO,56%;s>5#=88%%6,B#;66;#i,8%%78;#6>t=%655Oq75;#,75#,,e8O668#,w>5#>85#=5<tO,68=$i>8%=8",
"=6#$B,#8;%7=%S>#<5#8=#yuO<5#6,OxeO;6#65+6M#;6#;6+9B#$7%>6#=K;#8%%8%=M=#7>%8%#B7+8;#6;#M7O,6#8;+0zO>5#,6Owi+=7#,,#>S%=9#=8#,H%#6;",
"#5><e+,>##=8#5w=7%%;5;i#>7#%%6=$B=6=%%7$B;%8&%#5,#i,,,##7=qe@6;%#;6+79=5%#>,>t+,5#%=7%;f=7%%=6=B&=8%%#6=#x>6=%%7$s5#7;%#,5 w7>5#",
"&#9Z#;6#=,#,5Oqk#%=#>B;%8-%,%=8#,M=%=%$B7o6;#>&%7=$B5#==#0z+,5#;;#65+yq#==#<B%=8%=>#;6+7B&%=%=A5o6=%,%%7%;S>#=%%ye+<,#,=#6;#B7#$",
"7#B;#8-%6e=#7;#B;>e#e8.7;#,7;#,5Oq7$q=,f+,5#;e6#=7+6k#e6$k&$5%$87*%8=$k$6e#i5#7=#68=#5,#u>=t$<tO<,#>e,#;6O9e#e,:B#=6#=e8%&8%;z#8",
";v8@6;#5;&7#-8%;M5%0u@,6#>6#6=#5=#Me%1M%=7%$9%,,#,5Oqx->M,#6=#6==7#=8#,B;=kqO65#,5#7&%8=$C8%9i#;7#=8#6>#5,+iu%,x;#7%%8$>6#>6+7i;",
"<z@,5#>6%#>5#;7 eq#B$=7%$7&%=7%&8%;Moi6#7;#7;%%6=#7;#M=<t@,5#,5#%6,#,5Ow7=B#;7#=8%#;6#=8#6woi;#8&%7=%&7&%7=$S#08X83#6,#%6>#,,+i5",
"M&=8%&8$%=#8;#65#0b5#8=#6;%=#,6#;6@7v8+65+,5#&%=6%&8%;bu#;5#=6%$$#5=#6;#kM;%8=%7=%&#5,#>5+7b5#6;#5,#=#;7#=8#,Pu+,6#>6#=%&8=%7=$x",
"xo8=#5;#6e%%7*%e%<Y#<,#,5#;q=#6;#5>$U>=8#=8%$e,#,<#>7XIw#8&%8=#78#=7%%8#wHX6;#65#,0%%6=#6=:T=;5#>6#=e;#5,#,5oT8%8#$8%%e5#;6#=7oh",
"wy;#,5#>5;6#;7#=qf,v5#=7%$7=8%%8$%<M>x7%#7=#6;6=#6;#>i5wu=#65#,,,,#,<#=0q6v>#>6#=7=6#=6%%9z>M6%$8%%8=7=%7=%,B5se=#6;#6;6,#55#=sq",
"%B;=7#=7%%6>#,,oM;Oie+8=#7;#,6#;6 sqO6i@6,#,5#=8%%8%<x+=S%;7#;6%%7=#8;#B=#x,#9%%7=#55#,6Xx5Oew 6;#65#;7%=7#7tO>Z#,6#>5#$8=%7=;x#",
"#;x6;#6;#%%7$%<y8#=#Be>#,5#%#6;#>0u#=#e95%=6%%#,6#;<B=%#,y<-%7=%%=7%=<y5#%&i6;#6,##%8;#,wt#=#w9,#>5#%#,,#>9u%$#9i5%$8%%%;7#=6i;#",
"6+ez ,5#>6#;8+<NO,e#>M#=7#=7%%8-=L*$q;#B>#8=#7;#6>Xx5#95Oue 6>#,,+,6O9qO5e#5B >6#=8#=7#>M#;q$$S=$8%$8*#6;oM;#e,Oi6#7;#<,#55 i8#6",
"6,Ok96%=66,#5<z&=7>6O8s,=#666#>6u5#8;7%>x<,#567%=6eeO6,5;#x<5#;86;#67f#>6,6Oq05&$76,#><i;#8>8#<i,;#666%=<w8O6>7==B65#,76=%61u#,6",
"%8=$S=#6=%8=oA5#8;#,5@v9O55#65OsuO5,#;6+8iO;7#>6+<S#>7#=8%;G%%8&&8%#A;%6=#7;#S,+65#6;Xx9O7;#55 iw ,6#,,O<zO,5#=8#6A+=8%=8#=S%=7%",
"#=7#,0>5##;<9tO,,#%%8=$M,7%%%7>z#>7#%#,,@w<6=%#5;i;%8-%#>7Oew,5##,,08+6;#%=8%;B>5#%=6<d+,6#%%7;#u,6%%%5>k%=8%%#,5Oq95;##5,w5#8=#",
">#,5OqiO=>+1M#;7#=5#=8#,S%%,#=Z;%8-%6*%8=$S>#>=#M8O7>#<>#65 MeO>;+0z+,5#>5#>7OeM#=>#>S%=8#$6%$8%=S=%>%#S5#8;#6=#7;#S8+>=.xuO6,#>",
"7=#6;#x>6e=k;#8-%67,#,5 w7;t=q9O6;#,76#=7#,q=e5,i@,5#>77&%7=$B=87=B%=9%&78;#5,+k,>e=w5#8=#675#>7O9q=t>9tO65#,77%&8#>i=95:B#;6#=e",
"=7%&8%;S;#x8o7;#<5#8=#7;#Me wz+,5#>6#6,#,5@qu#<Z$=7%%8%;7#=8+<G==S5#8;#6;%7$%7=$S5+xtO65+,5#7>#5,+xwO9M#;6#=7#,5#;6.7M#>S;%8%#8=",
"#,6#;6#70,u+,5#;5%%=8%$8%>x=z==6%&8%%%8;#6;#N:q5#7=#6;%#5,#,5Oe<<q+65+,5#%;6#=6#,w:B#>7#=8%%&8=%7=$B=u;%8%%6=%#6;#65#i,08#7;#5,#",
"-#6;#55#xM%=7%$7%%=#,5#>6O9Y,#7=#6;%=%=8%&8%;H9+<,#>5#==%7=#8;#vB#;7#=8%==#,>#,5+qU;%8=%6=%=%;6#=8#>I7#6;#5,#=%$7%%8=$Iz+,6#;6%="
};
