/* XPM */
static char *fabrics_128[] = {
/* columns rows colors chars-per-pixel */
"128 128 80 1 ",
"  c #2E772E",
". c #30792F",
"X c #2F7830",
"o c #337B32",
"O c #317931",
"+ c #347931",
"@ c #357A31",
"# c #357B31",
"$ c #347832",
"% c #357933",
"& c #347A32",
"* c #347B32",
"= c #347A33",
"- c #347B33",
"; c #357B33",
": c #367A33",
"> c #307C30",
", c #317C31",
"< c #317D31",
"1 c #327C30",
"2 c #327C31",
"3 c #337C31",
"4 c #307C32",
"5 c #317D33",
"6 c #327C32",
"7 c #337C32",
"8 c #337D32",
"9 c #337C33",
"0 c #327D33",
"q c #337E32",
"w c #347E31",
"e c #347C32",
"r c #347D32",
"t c #347C33",
"y c #357C33",
"u c #357D33",
"i c #317834",
"p c #327934",
"a c #337934",
"s c #337A34",
"d c #337B34",
"f c #337A35",
"g c #337936",
"h c #357834",
"j c #347935",
"k c #347A34",
"l c #357A34",
"z c #347B34",
"x c #347B35",
"c c #357B35",
"v c #367B35",
"b c #347936",
"n c #357937",
"m c #357A36",
"M c #347B36",
"N c #357A37",
"B c #367B37",
"V c #377B37",
"C c #337C35",
"Z c #347C34",
"A c #357C34",
"S c #347D34",
"D c #357D34",
"F c #357C35",
"G c #347D35",
"H c #367D35",
"J c #357E35",
"K c #367E34",
"L c #367E35",
"P c #357C36",
"I c #367C36",
"U c #377C36",
"Y c #377C37",
"T c #377D37",
"R c #377A38",
"E c #377C39",
"W c #387E38",
"Q c #387E39",
"! c #337A33",
"~ c #3B8039",
/* pixels */
"O...O OOOO$OOOOOOOOOOOO  O>OOOOOOOOOO.OOOOX>OOO OO.OOOO OOOOOOO>.OOOO. OOOO.OO OOOOOOOOOOOO..OOOOO$ OOOOOOOO. .OOOOOOOOO. OOOOOO",
".OOOOOOOOOOOOOOOOOOOOOOOOOOOOO$OOO OO.OOOOOOOOOOOOOOOO>OOOO.OQO. OOOO.>$OOOOOOOOOOOOOOOOQOOOO OO..X$OOOOOOOOOO.OOOO.O OOO.OOOOO.",
"OOOORO..OOOOOOO.OOO. OOOOOOOOOOO...OOOOOOOOOOOOOOOOOOOO .OO.OOO...ORO> $OOOOOOOO. OO .>OQOOOOO. . $OOOOOOOOOOOOO.OO OOOOOO$ROO.O",
"OO.OOO  O OOOOOOOOO .OOOO.>OOOOOO..>OOOQOOO..OOOQQOOOOOOO. .OOOO. OOOOOOOOOOOOO ..OO...OOOOOOOO$ OOOOROOOOOO>OOOOOO$OOOOOOOQOO>>",
"OROOOOOOOXXOOOOO.O$. > OO  OOOO$OOO O$$OOO..O.O.OROOOOOOOOOOOOOOO.>>>O~TOOOOOOOO>.>O..OOOOOOOOOO.OQQOOOO>OOO>OTOORQOOOOOOOOOOOOO",
"OOOOOOO$O$XOOOO.OO.O$$ .... X>OOROO.$ .O$OOOO.. OOOOOOORQOOOOOROOO....OOOOO..OOO.OOOOOOOOOOOO.OOOOQQOOOOOOO>>OOOOOOOOOOOO OO  .O",
"OOO.>.$OOXXXOO.>OO..OOO>...OOO$OOX.>$O..OOOO.OO. OOQOOOO~> .OROOO. .O..OOO...>OO. OO...OOOOOOOOOOOOQOOOOO.. .>O..O O$OOO>>OO...O",
".OO>. O>OXO$OOO>>.. OOOOOOOO$$O$XOO O.O$.OOOOO..OOORO..OO.>..OOOOOOTOOOOO.. O$OOOO .OOOO.>O.OOOO.OOOOO>>OOOO>.X .OOOOOOOOOOO.>OO",
"OOOOOOOOOO$OOOOOOO.OOOOO$OO .X$$ OXOOOOO.OOOOOO..OOOOOOOO.OOOOOOOOTTOOOOO.OOQOOOOOOOOOOOOOOOOOOOO.OOOOO OOO.OOOOOO.>$OOOOOOO>.OO",
"~OOOOOOO$OOOOOOOOO$ OOXX$OOO.OOO$O.OOOOOOOOOOOQOOOOO$OOOOOOOOOOOO.OOO ..OOOOOOOOOOOOOOOOOOOO..OOOOOOOOOOOOO. .OOOOO OOO.OOOO>>OO",
"OO. .OOOO OOOOOOOOO .  OOOO. OOOOOOOOOOOOXOOOOOO.OOXOO.OOO.OOOOOOOOOOO..OOOOOO  OOOO$OOOOO$O.OOOOO OOOOO.OOOOOOOOO.OO.OOOOOOOOOO",
"OO>   OQOO.OOOOOOOOO$X.OOOOOOOOO OOOOOOO..OO.OOO..OOOO$$O.OOOOOOOOOOO.OO~OOOOO >$O.OOOOOOOOOOOOO. $OOOOO ..OOOOQO..OOOOOOO  .O~O",
"OROOOOOOOOOOOOOOO $XX$$O.OO>OOO.OOOOOOOOO.OO.OO ..OO..OOOOOOOOOOO.OOO ..ORTOROOOOOO .OX$OOOOO.OO..OROOOOOO.OOORQOOOO.OOOOX.OOROO",
"QRQOOOOOOOOOOOOOOO...OO$.OO...O. $ OOOOOOOOO..OOOOO.>OQTO>>OOOOOOOOOO...OOOORRO..OOOOOX$OOOOOOOOOOOOOO.OOOO ..OOOO.O.OX$O OORROO",
"~OQOOOOOOOOOOOOOOOOOOOOOOOOOOOO.OOO  . OTQOO.OOROOO.OOQQOO>OOOOO..OOOOO.OOOOOO..OX$OO OOOOOO .OO$ OOOOOOOOO. >OOX OOO>O  XOOROOO",
"OO.OOOOOO$OOOO O OO..O..O. OO.OOOOO$O..OORRO$$$$OOOOORROOOOOOX OOOOOOOOOOO..>>OOOOO$OOOOOX.OO.  OOOOOOOOOOOOOOOO ..$O ..XOO.O$OO",
".O. OO  ..$O$XOOOOOOOOOOOO OOOOOQOOOO$.O>OO$$O$$O. O.O. OOO$>   OOOOOOOOOO  OOQQOOO$ OOQOO. .OOOOOOOOOOOOOOOOOOOO.O$OOO>X ..OOO.",
"O>OOO.   OOOOOOOO..OOOOOOOOOOOOOOOOOO$OOO. .$OO$OOOOO  OOO..>   $OO.OOOOOOOOOO$$OOOO OTOTT...OOOO.O$OOOOOOOOO .OOOO$X$O XOOOOO.O",
"OOOOOO. .OOOOOOOO.OOOOOOOOO.OOOOOOOOOOOQRO  OOOOOOOOOO.ORO.. O..OOOOOO.OOOOOOOOOO $O OOOOTOOOOOOOOOOOOOO>OOOOO.OO.O$OXOOOOOOOOOO",
"OOOOOOOOO.OOOOOOOOOOOOOOOO.OOOQO.OOOOOOOOO. OOOOOO$OOOOOOO....OOOOO..XOOO.OOOX.. OO OO$OOOOROOOOOOOOOOOOOOOOOOOOO OO$OOOOOO OOOO",
"TO  ORQOOOO OOOOOOOO.OO$R$OOOOOOOOOOO. OOO>>OO$OOO..OOOOOOO....OOOOOOOO.. OOO> ..OO.OOOO...OOOO  OOOOO.OOOOOOTOOOOOOO$  .OO...XO",
"OO  OOOOOOOOOOOOOOOO...OOOOOOOOOOOOOO..OOOOOOOOOO >OOOOOOOTOTO.OTOOOOOO$O$O$OO.OO .>OO~O>.. .O. OOOOOOOOOOOOOOOO. OOOOO..OOO OOO",
"OOO  OO OOOO.OOOOOOOOO. OOOQQTO OOOOOOOOOOOOOOOOOO>> OOO OOQT..OOQOOOOOO$O$OXOO$OO..OOOOO. .OOX  $OOOO$OOOOO$OOOO.OO OOOOO.>..OQ",
" ..  OO OOOO.OOOOQOOQO.OOOOOOOOOOOOOOOOOOO...OOOOOOOOOOOOO.O .. OOOOOOOX$$$OXOOOO.O.OO..OQOOTQO.OOOOOOOOOOOOOOO$XOO$OOOOOO ...OO",
" O  ..OOOOOO  OOOOOOQOOOOOOO.O.....OOOOOOO..OOOO. OOOOOOOOO..>OO. OOOX$  X$OOOOOO.OOOO. .QOOOOOOOOOOOOO...>.OROOOOOOOOOOOO..  OO",
" .OO. .OOOOOOOOOOOOQOOOOOOOOOO. .OO. OOOOOO OTOX.OOOOO>>OOO..OOOOO.OOO$XXX$OOOO...>ROO..OOOOOOOOOOOO.OOOOOOOOOOO  OOOOOOOO>>OOOO",
" OOTOO OOO.OOOOOOOQQO.OOOOOOTQO.>O .OOO OOOOOO$OOOOXO.OOOOOO..OO.OQOQQOO>$OOOOO$XOOOOOOOOOOOOOOOO.O .OOOOOTOO.OO. OOOOOOROOOO.. ",
"OOOOOOO..O .OOOOOOOOOOOOO. OQTO>..OOOO>>O...OOX$OOOOOOO.OO O. OOOORQOOOOOOOOQOOOO.OOOOOOOOOOO.OO.OO.OOOOOOQO O  ..OOO.OOOOOOOO. ",
"OOOOOO.OOOOOO.>OOOOOOOO.OO.$OOOOO.OQQO.OOX..OOOXOOO>OOOOOO.OO..OOO$OOOOOOOOOTOOO>OOOOOOOO.>O OROOOOXOOOOOOO. .OOOOOOOOOOOOOOOOOO",
"OOOOOOOOOOO>O..OOOOOOO.>OOOOOOOOO$OQQO.OQOOOOO$$X$O >OOOO OOOO O>O$O>.OOOOOOOOO OO OOOOOOOO$OOOOTOOOOOOOOO..OOOOOORO..OO.OOOOOOO",
"OOTOOQOOOOOOO.OO. .O....OO...OT$ OOOOOOOOOOOOO$OXOO...O.O$.OOOOOOOO...OOOOOOOOO. ...>O.OOOOOOOOOOOOOOOOOOO>O.>OOOOOOOOOOOO.XO..X",
"OTOOTOO.OOOOOOOOOOOO.....O...QO>. OOOOOOOOOORO. OOOOOOOOOO.OOOOOO.  >O~OOOOOOOOOOOOO.  OOOOOOOOOOOOOOOX$OO ..XOOO...OOOOOOOOO . ",
"OOO..OO .OOOOQO..O  O.OO.OO OOO OOOQROOOOOOOOOX..$OOOOOOOOOOOOO.. $OOOOOOOOOO.OOOOOOOOOOOOO....OOOOOO  OOOOOXOOOTOOOOOOOOOOOOOOO",
".OO.>OO.OOOOOOO .O ..>OOOOOOO..  OOOO$OOOOOO.$   X$OOOOOOOXORQOOO.OO.OOOOOOOO>OOOQROOOOOOOQOXXO OOOO. $O$OOOOOOOOOOOOOOOO...OO  ",
"OOOOOO>OOOOOOOO.OO.O>>.OOOOOOO.  O  OOTOOOOO.    ORROOOOOO.OOO. .OROOO.OOOOOO..OOOOOOOOOOOOX X   .OOOOOO OOOO.. .OO OOOOO..OOO..",
".OOOOO> OROOOOOOO..OOOOOOOOOROO..OX  $OOOOOO. ..OOOOOOOOOOOO..O .OOO.OOOOOO.O.OORO ..OOOOOO       $OOOOXOOOO$$$$OOOOOOOOO...OOOO",
"O.OOOOOOOOOQROOOOOOORO >OO OTTOOOOO$ XOOOO.. OOO >OOOOO OOOOOOOO OO  $O$OOOO .OOOOOOOOOOOOO..X  X$OOOOOOOOOOOOORO.>OOOOOOO XOOOO",
"OOOOOOOOR.OQOOOOOOOOOO  $$ OOTO OOO$O$OOOO. OOO$OOOOOOO.O.OOOOOOO OO$$OOO.OO  OOOOOOOO O..OOOXX  OOOOOOOOOOO OOOT..OOO$XO   OOOO",
"OOOOOOROO.OOOXOOOOOOOOOOOO$.OOOOOOOO.OOOOOOOOOO OTOOOOOOOOOO.. OOO$X . .OOOOO.OOOO.O ..OOO  OO$.XOOOO.OOOO.OOX .O.OOOO$OO  $O$XO",
"O.OOOOOO  OOOOOOOO>.O>$ $ O.OOOOOX.OOOO.OOOOOOOO$OO$$OOOOOO  OO.OOX   OOOOOOOOO OO.O .OOOO..O$>.X$OOOOOOO .OOO .O>.OOOOO    OOOO",
"OOOOOOOOO.OOROOOOOOOO$$$XXXOOOOXOO..RQO.OOOOOOOOOOOORQOOOO  .O$OOOXOX.OOO.OOOOO.OOOOOOOOOOOOO OOO$OOOOOOOO.OOOOOOOOOOOOX    OOOO",
"OOTOOOO~OOOOOOOOOOOOXXOOXXX..  OO.OOQQ~O.OOOOO.OTOOOOQTOOOOO>OOOOOXOOOOOOOOOOOOOO.. OTOOOROOOO.ROO .OOOOO>.OXOOOOOOOO $OX  O$ XX",
"OOOOOOOOO.O.O>OOOOOO$$ >$$OX  $O  OOQQOO.OO$O>..>. OOOOO$XOOO.OOOOOOOOOOOOOOOOOOO..OOQROOOXOO.OTO... O.O.OOO>XOOOOOOO.OOO X$$O X",
"O.OOOO..OO OO..OOOOOOX.$X $$X$$  XOOOOOO.OO$O..O. O O  OOOOO ..OO$OOOO>>O OOOOOOOO.OQOOOROOO. OOOO...OOOOOOOOO .OOOOOOOOO$$OOOO.",
"OO.  ..OQOOOO OO..OOXX$$O OO$XXX>$$$OOOOOOOOOOOOOO$$X X$.OO  OOOOOOO$..> OOOOOOOO..OOOOOO . OOOOOO.OOOOOOOOOOOOOO.OOORO>X OOT..O",
"OO$.OOOOQO.OOOOO. OOO$$$ OO O$ X$  OOO.O.OOOOOOOOOXXXX$XO$$$$OOOOOO$  OOOOOOOOOOO.>O.>OOO.OOOOOOO..OO.O.OOOOOOOOOO OOO>...OOO.. ",
"OO.OOOTORQOOOOOO.OO O OO. . OOOOO$  .. X.OOOOOOOOOO$O$$X. . OOOO..OOOOOO. OOOOOTO..O.>O.O>OOO$OOOO.O.OOOOOOOOOO.OOOO.OOOOO... .O",
"OOOOOOOOO.OOOOOOOOOO OOOO..O.OOOT> . OO$..OOOOO.OOOOO$    $OOOOO  .OOOOOO >..OOO..OO  OOOOOOOTOOOOOOOOOOOOOOOOOOOXOOOOOO>...O> O",
"OOOOOO.O.  OOQTOOOOO OOOOOO$ OOOO$  OOO  OOO>OOOOOOOOXOOOOOOOOOOO .OOOROO... OOO.OTOOOOOOROO.OOOOOOOOOOOOOOOOOOOOOO.OOOTOO..OOOO",
"OOOOOOO..>OOOOOX.OOOO$.OOOOOOOOOOR>> .OOOOOOO..OO. OOOOORQRO$OOO.OOOOOOOOOTOOOOOOOROOOOOOOOO.OOOOOOO$.OOOOO..OO. OOOOOOOOO.OOO  ",
"O>.OOO.O .OOO.OOOO OOOOOOOOOOOOOQO..OOOOOOOOOOOOO.  OOOORQOOOOOOOOOOOOOO OOOOOOOOOOO.OOOOOO .OOOOOOOOOOOO.OOOOO..>O XQQOOOOO.O>O",
"QO$O O.. O OO.O.OOOOOOOOOOOOOOOOOO. OOOO.OOOOOOOO$OO$$OOOOO$OOOOOOOOOOO..OOO.OQOO..OOOOO >>..>OOOOO>OOOOO. .OOO.  O..OOOORO.OOOT",
"RTOO.O .OOOOOO.OOOOOOOQOOOOOOOOOOOOOOOOO.OOOOOOOOOOOOOOOOOOOOOOOO O. OO.OOO.OOOO>>.OOOOOOO.   OOOO.OXOOO>.. OOOO$XX   XOOROOOO$$",
"QOOOOOOOOOOOOOOOOOQOOOOOOOOOOOOOOO$OO$O..OO.O.OOO>.OOOOOOOO$OOOO. .OOOOOOOOO.... .OOOOOOOO. >OOOOOO OOTOOO..OOQO$XX   OOOOO..OOO",
"QO. OOOOOOQOOO$.OOOO.O.OOOOOO$OOOOOO>O..$$OOOOOOOO.OO.OOO..OQOO.O.OOOOOOOOOOOOO....OOOOOOOOOOOO OOO.OOOOOOO.OOO$XXX$  OOOOOOOOOO",
"O.  OOOOO>OOOOO.. OO. OOTOOOOOOOOOOO.OX  $$OOOOOOO. $OOO...OOOOOOOOOO..OOOOOOOOT$>OOOOOOOOOOOO.OOOOOOOOOOOOOO$OOX XOO OOOOOOOOOO",
"O.OOOOOOOOOOOOO>O.OO$XOOOOOOOOOOOOOOO.X  $$OOOOOO >OOOOOO ...OOOOOOOO.OO..OOOOOOOOOOOOOOOOOOO  O. OOOO.OOO>>OOOO  $$O$$OOO O..>.",
".  TOOOOOOOOO..  OOOROQO.O.OOOOOOOOROO$ . OOO OO.>>OOOOOOO...OOOOO. OOOOOOOOQOO$OOOOOOOO$$O .O  O.O..OOO>OO. .OOX OOOO$ OOOOO  >",
"O.OOTOOOOOOOOOOOOXOOROOO.O>..OOOOOOOOO>X$ OOO OOOOXOOOO.OO.... OOO.OOO OOOO>OOOO. O$$OOO X   O>$.OOOOOOO>.OOOOOOOOOO>.O$$OOOO..R",
"OO  OO .OOOOTO.X$>OOOOOO.OOOOOOOOOO.O.>$$$$OOOOOOXXOOO..RROXX XO..OO. OOO..>OOO. .OOOOO$$$X OOOO. OOO.OOOOOOO. OOOO> OOOOO.OOOOO",
"O  .OTO>OOOOOO. O>OOOOOOOOOTO$.OOOOOOOOX$OOOOOOOOOOOOOOOOROX$$O$OOOOOO..OO..OOO .OOO$XXO$X   OOOXOOOO..OOOOOO.OOOOOOOOOO.OO.OOOO",
"O$.OOQT.OOO.ORO...XX.OOOOOOTO>O>OOOOOOOOO$OOOOOOO.OO$$XOOXOOOOOOO .OOOOOOOO$O.O>OOOXXO O    OO$OOOOOOO.OO.OO...OOOOO OOOOOOORO  ",
"OOO.O~~O.O>$OOO...O.OOOOO OOOO..OOOOOOOO.. OOO OOO.OOO   XO XXOO.  OO.OOOOO$OOOOOOO $O  O XXOO OOO$OO...OOOOO .$QOOOOQO...OOO . ",
"OOOO OOOOO. OOOOO.OO...OOOOOOO...OOOOOOOOO OOOOOOO OOOO$$$.OOO.O..OOOOOOO.OOOOOO$OO.$$XOOOOO.OOOOOOOO...OOOOO.. QTO.OOO.O..OO>OO",
"OOOO$OOOOO.OOOTO OOO..OOOOOOOOO. ..OO O$XO.OOOOOOOO>OOOOO$OOOOOOO.OOOOOOOOOOOXO>O>. OOOO.OOOOOOOOOOOOOO O.OOOO>.OO>  OOOO. $O.OO",
"QOOOOOOOOO>OOOQO  OO.>O.OOTOOOO>O.OOO.OO OOOO OOOOO>OOOOOOOOOO.OOOOOOOOOOOO>OXOX>.  $OO.OO.OOOOO>OOQQTO...OOQO..OO >>>.OO..  OOO",
"OOOOOOOOOO .OTQOOOOO OO.>OOOOOO OOOOOO.OOOOORROORROO.OOOOOOOOOOOOOOOOOOOO... O$ >X$OOO.OOOOOOOOO. OOQOOO>OOOROO..O$OOO.OOOO>>.>O",
"OOOOOOOOO. OQOOOOO.OOOO..O .OO..OOOOOOOOOOOOQQOOOOOOOO.OOOOOOO>> OOOO~QQOO.. OO OOOOOO..O.OOOO~O OOOOOOOOORQORO..O$ $$.OOO$OO  O",
"OOO>XOOOXX$OQQOTOOOOOOO.XX.OOO.. OOOOO>OOOOOOO..OO .OO OOOOOOO..OOTO.OQOOOTOOO OOOTOOOO. OOOOOOO.OOOOOO$TORQOOOO OOOOOOOOOOOOO>$",
"$OOOOOOOOOOOOROOOOOOOOOOOXOOOOOOOOOO   OOOOOOO..>OOOOOOOOOOOO$OOOOOOOOO..OQOOOO.OOOOOOO >OOOOOOOOOOOOOOOOOOOOOO>OOOOOO$$OXOO OO.",
".OO XO $OO$OOO.>O. OOOOOOOOROOOOO  OO..OO OOOO.O. ..OOOO>OOOOOO O O.OOO. .OOOO.. OOQOOOOOOOOOOOOOOOOOO ...OOOOO  OO.O..OO... O.O",
"  .O$O$XOOOOOOOOOO OTOOOOOOOOOOOO. .OO.O  XOO.QOOO.OOOOOO..OOOOOOOOO$OO>OOOOO OOOOOOO$OOOOOOOOOOOOOOOOO OOOOOOO.OO.$O>OO.OO..OO.",
"O $OOXXOX$OOOOOOOOO>O.OOOOOOOOO   OOOOOOXXO$$OO$OOOOOOOOOOO.O$OOOOOOOOOOOOOOOOOOOO...>>XOOOOOOOOOOOOOO.$OO$OO$.OOOOOQOOOOOOOOOOO",
"OOO$OXOOX OOOOO.O$O.  OOOOOOOOO.OOOOOOO   O$OO.>OOO. .OOOO.OOO  OOOO..OOO... OO.. ..$$OOOOOO.O OOOO.OO.OOOOOO$.OOOOOOOOOOO OOOO.",
"$OOOOOOOOOO..OOO.OO .OOOOO..OOO   O$OO.  O.$$OOOTOOO.OOOOO>OO>  $OOOO.OOO..OOOOOOOO.XOOOOOO ..OOOOOOOOO.OOOOTOOOOOOOOTOOOOOOOOOO",
"$OOOOOOO $..OOOOOOOOOOOO.O.OOOOOO.OOOOOO$O.OOXOOOO. OOOO.RO$O>$ $OOOO>OOOOOOOO OOOOXOO$OOO>>OOOOOOOOOOOOOOOOO OOOOOOOOOOOOOOOOOO",
"OOQROO..OOOOOOOOOOOOOOOOOOOOOOOOOOOO OOOOOOOOOOOOOO.OOOOOQR$$$OXOTTOQOOOOOOOOOO OOO.. XO>>...OOQROOQROOOXOO.OOOOO.OOO  OOOOOOO O",
"OORO.O.OOOOOOOOOOOOOOOOO  OO OOOO  O$OXOOOOOOOOOOOO.OO>OOOR$$XO  OOOOOOOOOOOOO..OOO..O$O.....ORQOOOQQOOOOO..OOOOOO$OO..OOOO>OOO.",
"OOOOOOOO  O   OOO.>O. .OOOOOOOOOOOOOOXX>OOOOOOOOOO>OO.OOOO .OOO  .OOOOOOOORRO~O.OOO OOXOO . OOOOO OOO$O.OTO.OOROOOOOOOOOOOOOOOOO",
"OOOOOOOOO OO OOOO.OOOO.OOO.OOO..OO  >OO.>OOOOOOOOO .OO..$O...>OOOO.OOOOOOOOO OOOOOOOOOOOO.OOOOOO. O>O$.  OO..$OOOOOOOOOOOOOOOO O",
"OOO.OOO.OOTO..OOOOOOTO>.OO.OOOOOO..OOOOOOOOOOOOOOO.OOO.OO$O>..OOOOOOOOOOOOOOO.OOOOO .OOOOOOOOOOO.>O OOO  ... $OO$OOOOOOOOOOOOOOO",
"OO..OOOOOOO>O.. O.OOOOO>OOOOOOOOOOOOOOOOOOOOOOOO.O OOOOOOROOOOOOOOOOOOOOO$OO.OOOOO.OOOOOOOOOOOO   OOOOOO  . .OOOOOOOOOOOOOOOOOOO",
"OO ....OOO.OO....OOOOO.OO$OOOOOOOOOOOOOOOOOOOOOO..O>OOOOOOOOOOOOOOOOOOOOOOOOT. O.OOOOOO$OOOOOO..$OOO..OOO $$.OOOOO OOOOOOOOOOOOO",
"OOOXO OOOO$OOO..OOOOOOOOOOOOOOOOOOOOOOOOO.OOOOOOO OO .OOOOOOOOOOOOOOOTTOOOOOOOOOOO~O.OOOOOOOOOOOO$OO>TTOOOOOOOOOOOO..OOOOOOOOOOO",
"OOROOXOOOOOOOOOOOTOOOOOOOOO..XOOOOO.OO$RO.OOOO..O  O  O$OOOOOOO>OOOOOOOOOOOOOOOO OOOOOOO..OOOOOOOOOO QQOOOOOX . O.O >OOOOOOOO...",
"ORROX$ .OOOOOOOO.OOOO.OOOOOOOOOOOO .OOORO..$O$ .OO O  O$OOOOOOOOOOTOOOOOOOOROOOO..OO OOO O$OOOO.OO  OOOO..OOOOOOOOOOO.OOOOOOOO.O",
"$$$OOOOO  $ORO. .>OO. .ORROO..OOOOO.OOQO...O$X OO$ $OX.OOOOOOOOOOOOOOOOOOOQQOOO...OO.OOOOOOOOOOOOOOO> OO. OQOOOOOOOTO OOOOOOO>$O",
"O$XOOOOOOOOTO>... >....OQOOO.OOOOO  .OOOOO>    OOOXOOO.OOOOO.OOOOO.OOOOOO OQOOO ..OO.OOOOO~OOOO..OOTO .OOOOQO  OOOOOOOOOO..OOO X",
"O XO$OO>OOOO......O.OOOOOOOOOOOOOO.OXOOQOO.OO OOO$OOOO..OOO..O$>OO>..OOOOOOOOOO..OOOO.  >OTO..O.>OOO. OOOO$$XX X$.OOOOOOOOO>$$XO",
"X  $O. .OOOOO.O..O$>OOTOOOOOOOOOOOOOOOOOOO.OOO.O$$OOOOO OOO..OOOOOOOOOOOOOO.  OORQOXOO .OOO.OOO.OOOOOO.OO. XX  XOOOO.OOOOOOOO  O",
"O  XX$   OO$OOOO.OOOOOOOOOOOOO.OOOOROO OOOO$QOO.>O$$OTOO>.XO OOOO$OOO..OOOOO. OOOOOOOOO.OOOOOOOOO O.OO $X  X X XOO..O.OOOOOO.XOO",
"OOXOOO  . ..OTO.OOOOO OOOOOOOO .OOOOO.OOOOO$QOOXOOO$OOOO>.O..OOOOOO>>>OOOOOOOOO .OOOOOOOOOOOOOOOOO .OOXX  $ XX OOOO.OO OOOOOOOOO",
".OOOOOOOO. OOO~OOOOOOOO.OOOO.O.OOOOOO>OOOOO OOOOOOOOO> OOOOOOOOOOOOOOO.OOOOOO  O.OOTOOOOOOOOOOOOOOOOOO$O OO  .OO~OOOOOOOOOOOOOOO",
"OOOO.OOOOOOOOOOOOOOOOOOOOO.OOOOOOOOOO>OOOO.O OOO..OOO..OOOOOOOOOO OTOO. OOO O>>OOO$OO OOO$OOOOOOO>OOOOXX O.. . >OOOOOOOOOX.OOOOO",
"OOTOO $OOOOO.OOOOOOOO  OOOOO.O$OO.OOOOO..OOO.O.O>>OQOOO>OOOOO.OO. OOOOOOOOO$OO.ORROO. .OOOOOOOOOOOOOOR  $$$OO  OOOOOOO...OOOOXXO",
"OOOOOOOOOOOOO.O$$OOOO .OXXOOOOO$OOOOOOOO.OOOO.  .OOOOOOOOOOO.OO.OOO  OOOOOOOOOOOQQOO.OO..OOOOOOOOOO OO  OOOOOO..OOOOOOO..OROOOOO",
"OOOO OOO>OOOOOO OOOO.OO.O.OOOOOOOOOO$OOOOOQOOO$..OOOO OOXOOOOOOOOOOO..OOOOOOOOOOTOOOOOOOO.OOOOOOOOOOOOO.OOQQOOO..OOO.XOO.OOOOOOO",
"OO.OOOO. OOOO OO OO   OO.OOOOOOOOOOOOOOOOOOOOOOOOQOOOOOOOOOO OOOOOO.O.OOXOOOOOOOOOOOOOOOOOO.OOOOOOOOOOOTOOQQQOOO.OOO.XOOO.OOOOOO",
"OOOOOOO $OOOO OO.OOO OO$ O>ORO.OOOOOOOXOOOOOOOOOOOTOOOQOOOOOO.OOOOOO.OOO..OOOOOOOROOOOOOO..OOOOOOOOOOO.OORRTOOOO.OOOO.OOOOOOOOOO",
"OOO$OO  OTOXOOOOOOOOOOO$..OOO..OOOOOX .OO.OOOOOOOOOOOOOOOOQOOO  OOOOOOOO  OOOO..OO..OOOOOOOO.OOOOOOOOO..OOOOTOO..>...OOOOOO.OOO.",
"O. OOO.OOTOOOO.OO.OOOO. OOOOOO. OO>O > OOOOO$QOOOOO.O.OOOTOOOO  .OOOOOOOOOOO.OO .O..O.O.O > OTOOOOROOOOOOOOOQRO....OOOOOOOO.OOOO",
"OOOOOOO OOOOOOOOOOOOO ..OOOOOOOOOO>..O OOOOOOO..OOO.. OO.OOOOOO .OO$.OOO$ >O..OO.OOO.O .OO> OOOOOOOOOTQOOOOOOOO...OOOOOOOOOOOORO",
".OOOOOOOOOOOOOO.$XO$ OOOOOOOOO$OOTR$OOO.OQRO.. ..OO.OOOO.OOOROOOOO... OOOO.OO.OO.OOOOO .OOOOOOOOOOOO OORRO>>OOO.O.OOOQOOOOOOOORO",
". OO>.OQQOOOOOOO . OOOOOOOOOOOOOOQQ$$$O>OQOO>O>.OOOOOOOOOOOOOOOOOOO..OOOTOOOO.OOOOOOQO .OOOOOO.OOOO....OOOO..OOOOOOOOQOOOOO.OOOO",
"OOOOOOO.OOOOOOOO  OTTO.O$OOOO$ROOOO  OOOOQQOOOTOOOO>OOOOOX OOOOOO$O .OOOOOOOO.OOOOOOQQOOO$OOOOOOOOO.O O..OO..OOOOOOO$OOOOOO>OOOO",
"OOOOO>O.OOOOOOOOO.OOO....OOOO$QQOOO. .  OOO..>OOOOOOOOOO$    .OOO$O. .OOO  OOOOOOOOOROOOOOOOOOOOO.OO>O. OOOOXXOO>>.OOOOO.OOOOORO",
"OOO....OOOOOOOOOOOOOOO..  O OOOOOOO .OO .O . .OOOOO..OOOOOO.O.OO.OOO  OOO.....OOOOOOOOOOQO.OOOOOOOOO>.>OOOOOOOOOOOOOOOO.OOO.OOOO",
"$OO...OOO.OOOOOOOOOO.O. OOO. OOOOOOOOO$O>O$ O.OOOOO..OOO>O. OOOOO >O>.OOO.OO.O.OOOOOOOOOOO OO OOOOOO$OOOOOOOOOOOOOROOOOOOOO.OOOO",
"OOOOO OO$O.OOQROOOOOOO. OOOOOOOOOOOO.OOOO$OO$OOOOOOOOOOO..OO.XOOOOOOO. OO.>>OO.OOOOOOOOOOO.OO.OOOOO$$OOO >OOOOOOOOOQ.OOOOO..OOOO",
"OOOOO.OO O>OOO>.OOOOOOOOOOOOOOOOO$$. .OOX$OORO$XOOOOOOOO>O.>.XOO$$OOO ORO ..XOOOOOOOOO. OO OOOOOO. XX$OOOO$OOOOO OQ~.OO$OO.OOOOO",
".>$O..OO$OOOO....OOOOOOOOO.>X OOX   .OROR$OO$   .OOO.OOO.OOOOOOOO.OOOOOQO>O.OOOOOXO.OOO.OOOOROOOOOOX$OOOOOOOOOO.>OOOOOOOOO.OOO >",
".XOO.OOOOOO O> OOO.OOOO.O.OO XO$O $OOOOO$$O$   XOOOOOOOO  OOOOOOOOO$>OOOOOOO.OO$$OOO>OO.OOOOOOOOOO XROOO OOOOOO...O.OOOOOOOOOOO.",
".OO.OOOO.OO >. .$O OOOOOOOOO OOOO$$OOO  O ..  OO.OOOOO  OOOOOOOOOOXO.OO> OO> OOO$OO . OOOOOOOORO> . O ...OOO.OO OO>.OOOOO OO$QTO",
" OOO$OOOO.$X OOOOOOO>OOOOOO.   OOOX OTO.OO>OX   O OOO>OOOOOOOOOOOOOOOOOOOO$    OTOOOOOOOOOOOO$OO.. XX  OOOOOOO.OQROOO.OOO   >OOO",
"X$OOOOTOOOOOO$OOTOOO..OOOOO.   OO ..>OOOOOXOO X > OOOOOOOOOOOOOOO OOXOOO$OOOOOXXOO$OOOOOOOOOO$OO..   >.OOT..OOO OROO .OOOOOOO. X",
"$OOOOTOOOOOOROOOOOOO..OOOOO  .XOOOO>. OOOO$XO$O  OOOOTOOOOOOOOO.OO$ X   OOOOOO$$OXXOOOOOOO..OOOOOO.O..OOQQO.$$>.OOO..OOOOOQRRO  ",
".OOOOO..OOOO.OO.OOOOOOOOOOOX$OOOOROOOOOOOOOOO $OOOOOOOOOOOXO.OOOO$ XO.. .OO  .  O$$OOOO$OO. .OOOORO$O$OOQQOOOO..>>O.O. .OQQQOO  ",
"OOOOO...OOOOOOO ..O.OOOO.OROOOOOOOOOOOOOOOOOO OOOOOOOOOOOOOOOOOOOO.  .  O$XX    $O  .OOOOOOOOOOOOQQOOOOOOOOOOOOOO.O OO XOQQROO O",
"OOOOO. .OOOOOOOX .O ..O.OOOOOOOO..O>.OOOOOOOO OOO..ORORXO.OOOOOO.OO.>.  OOO$$>   $  . OROOOOOOOO.OOO.OOOOO$OOO..OOO OOOOOOO$OO$O",
"$O OOOOOOOOOOOO$OOO.OO.OQTOOO.OOOO. .OOOOOOOO  O$$ OORQQOO.OOOOOOOOO.  .OOOX  X$O$X.OOOOOOOOOOO..OO.O OOOO$OOOOOOOO$OOOOOOOOOOOO",
" OOOOOOOOO..OOOOOOOOOO.OOOOOOO.OOOO>.OOOOOOO .OOO. $OOOOOOOOOO..OOO.OOOOO>OX .$OO>OOOOOOOOOOOOOOOOOO...RROOOOOOOOOOOO OOOOOOOOOO",
"OOOOXO.OOOOOOO.OOOOOO OO~OOOOOOOOOO.OOOO.OOOXOO OO$ OOOOO.O$OO$ >X ...OOTO  OOOOO OOOO.>OQOO.OOOO..O.OOQQO  OOOOOOOO$X    OOOOOO",
"OOOOOOO OO.OO.OOOOOOOOOO~ROOO OOOOOOOO>OO O OQOOO  ..O.O> $OOO$$OO .. OOTOOOOOOOO OOOROO OQROOOOO.O.O.OQQ...OOOOOO$OOO >.  OOOOO",
"OOOOOOOOOO OOOOOO.OOOO..OOOOOOOOOOOOOQTOOOOOOOOOOO$.OOO.>O OOOOOOOO.>.OOOOOOOOO.  OOOOOO>.OOOOOOO.OO. .TTO.OO..OO.OOOOOO.O .OORO",
"OOOOTOOOO.O..OOOOOOROOO OOO.OOOOOOOOOOOOOOOOOOOOOOOQQOOOXO..OOOOOOOOOOOOOOOOO.OO >O...O  .OOOOOO$X .. OOOO.OOOOOO. OOO.>.O.OOOTT",
"OOOOQQO ..OOOOOOOOOOOOOOOOOO.OOOOO.O..OOO.. ...OOOTOOOOOOOOOOOOO OOOO OOOO...OOOOOOOOO  ..OOOOOOOO.OOOOOOOOO..OOOO OOOOO~O.OOORR",
"OOOOOOOO.  O...OOOO.OOOOOOOOOOOOOOOOOOOOOOO .OOOOOOOOOOOOOOOOORO. OO$O..O$OO.>.OOOO.$O....O.OO.OOOOOOOOOOOOOO.OOOOOOOOOOOOOO.OOR",
"O>>>OOOOO...OOO.OOOOOOOOOOOOOOOOOOOOOOXOO.  .OXX  OOOOO.OOOOOOOOOO.O$O.OO.OO>OO OOOOOO.OOOO.. OOOOOOOOOOOOOO.O.$OOOOOOOOOOOOO OO"
};
